<?xml version="1.0" encoding="utf-8"?>
<!-- Generator: Adobe Illustrator 22.1.0, SVG Export Plug-In . SVG Version: 6.00 Build 0)  -->
<svg version="1.1" id="レイヤー_1" xmlns="http://www.w3.org/2000/svg" xmlns:xlink="http://www.w3.org/1999/xlink" x="0px"
	 y="0px" viewBox="0 0 511.99 511.99" enable-background="new 0 0 511.99 511.99" xml:space="preserve">
<path d="M271.192,427.331h-31.385c-3.76,0-6.808-3.048-6.808-6.808V260.514c0-2.736,1.638-5.206,4.158-6.271l29.868-12.619
	c2.52-1.065,5.433-0.517,7.395,1.39l77.253,75.108c2.696,2.621,2.756,6.931,0.135,9.626l-21.878,22.503
	c-2.621,2.696-6.931,2.756-9.626,0.135l-30.752-29.898c-4.315-4.196-11.553-1.138-11.553,4.881v95.153
	C278,424.283,274.952,427.331,271.192,427.331z"/>
<path d="M255.997,8c-137,0-248,111-248,248s111,248,248,248s248-111,248-248S392.997,8,255.997,8z M364.077,424.329
	c-1.683-2.663-4.645-4.436-8.028-4.436c-5.246,0-9.499,4.253-9.499,9.499c0,1.6,0.4,3.106,1.099,4.429
	c-21.928,11.319-46.22,18.701-71.947,21.214c-0.507-10.459-9.122-18.789-19.706-18.789c-10.584,0-19.199,8.331-19.706,18.789
	c-25.577-2.499-49.739-9.805-71.567-21.014c0.767-1.37,1.208-2.947,1.208-4.629c0-5.246-4.253-9.499-9.499-9.499
	c-3.478,0-6.511,1.875-8.166,4.664c-24.235-15.516-44.895-36.12-60.485-60.303c2.725-1.67,4.549-4.666,4.549-8.096
	c0-5.246-4.253-9.499-9.499-9.499c-1.654,0-3.209,0.425-4.563,1.168c-11.371-21.974-18.786-46.326-21.306-72.121
	c10.459-0.507,18.789-9.122,18.789-19.706c0-10.584-8.331-19.199-18.789-19.706c2.508-25.665,9.858-49.904,21.132-71.791
	c1.455,0.905,3.166,1.437,5.006,1.437c5.246,0,9.499-4.253,9.499-9.499c0-3.628-2.035-6.779-5.025-8.378
	c15.584-24.275,36.273-44.957,60.555-60.532c1.621,2.917,4.731,4.892,8.304,4.892c5.246,0,9.499-4.253,9.499-9.499
	c0-1.782-0.5-3.443-1.353-4.868c21.866-11.251,46.078-18.586,71.712-21.09c0.507,10.459,9.122,18.789,19.706,18.789
	c10.584,0,19.199-8.331,19.706-18.789c26.032,2.543,50.592,10.076,72.723,21.624c-0.826,1.408-1.308,3.043-1.308,4.794
	c0,5.246,4.253,9.499,9.499,9.499c3.503,0,6.555-1.901,8.202-4.723c23.796,15.455,44.098,35.827,59.46,59.689
	c-2.482,1.714-4.111,4.575-4.111,7.819c0,5.246,4.253,9.499,9.499,9.499c1.466,0,2.849-0.342,4.089-0.935
	c11.354,21.958,18.758,46.291,21.276,72.064c-10.459,0.507-18.789,9.122-18.789,19.706c0,10.584,8.331,19.199,18.789,19.706
	c-2.508,25.67-9.861,49.913-21.138,71.803c-1.298-0.666-2.766-1.049-4.326-1.049c-5.246,0-9.499,4.253-9.499,9.499
	c0,3.348,1.736,6.285,4.353,7.977C408.883,388.14,388.268,408.77,364.077,424.329z"/>
</svg>
